<?xml version="1.0" encoding="UTF-8" standalone="no"?>
<svg width="26px" height="22px" viewBox="0 0 26 22" version="1.1" xmlns="http://www.w3.org/2000/svg" xmlns:xlink="http://www.w3.org/1999/xlink" xmlns:sketch="http://www.bohemiancoding.com/sketch/ns">
    <!-- Generator: Sketch 3.3.1 (12005) - http://www.bohemiancoding.com/sketch -->
    <title>Fill 1</title>
    <desc>Created with Sketch.</desc>
    <defs></defs>
    <g id="Page-1" stroke="none" stroke-width="1" fill="none" fill-rule="evenodd" sketch:type="MSPage">
        <g id="Fill-1" sketch:type="MSLayerGroup" fill="#8C8C8C">
            <path d="M25.6666667,22 L0,22 L0.708062568,18.4061133 C0.714477631,17.3522261 1.48187953,17.3274833 2.39602599,16.9741257 L6.67487295,15.3225461 C6.74062734,15.2978033 6.80317421,15.2707409 6.8689286,15.2436785 L6.87213613,15.2282143 L6.89779638,15.1439343 C7.70849996,14.7905766 8.40693993,14.3011338 8.62024077,13.9632404 C8.76137216,13.7335966 8.91773932,13.6462237 9.03401233,13.745968 C9.0588707,13.7482876 9.077314,13.760659 9.09014413,13.7761232 C9.20882279,13.4250853 9.33151087,13.069408 9.45018954,12.71837 C9.49108556,12.583058 9.57528326,12.6495542 9.61617929,12.7547109 L9.52235899,12.3951676 L9.46943472,11.7487629 C9.38764267,11.6644828 9.32188828,11.591801 9.27457719,11.5438618 C8.99632384,11.2353505 8.97387112,10.4234785 8.83674915,10.2270828 C8.69561776,10.0275942 8.41656253,9.98506761 8.13510164,9.06417279 C7.85604641,8.14250477 7.51765184,6.82572571 7.87769724,6.80175615 C7.90897067,6.80175615 7.94345164,6.80794184 7.98434766,6.82263286 C7.95948929,6.69273334 7.93142339,6.69273334 7.90255561,6.51180187 C7.84642381,6.16772278 7.63953803,5.60250523 7.62109473,5.26770468 C7.58340623,4.5184628 7.77746188,2.41300808 8.21609181,1.71247853 C8.65472174,1.00885613 9.34353912,0.413483328 10.3242419,0.202396608 C11.1822565,0.0183722875 13.725829,-0.141682478 14.5341269,0.202396608 C14.8035595,0.316831899 15.135539,0.486165202 15.4675185,0.691839442 C16.0192139,1.02973284 16.5765225,1.46505087 16.8523702,1.90268854 C17.2901983,2.60321809 17.4193014,4.5184628 17.3784054,5.26770468 C17.3503395,5.83214902 17.2156232,6.59917476 17.1530763,6.94093421 C17.2565192,6.85046847 17.3567546,6.79866331 17.4441598,6.80175615 C17.8042052,6.82263286 17.4626031,8.14018514 17.1843497,9.06417279 C16.902087,9.98197476 16.6230317,10.0275942 16.4859098,10.2239899 C16.3447784,10.4234785 16.3255332,11.2353505 16.0472798,11.5438618 C16.0031763,11.5887081 15.9374219,11.6552043 15.8588374,11.7371647 L15.8123282,12.52816 C15.7842623,12.963478 15.9061485,12.5583152 15.950252,12.7152772 C15.9783179,12.8034233 16.169166,13.3740533 16.2822315,13.6794718 C16.3319483,13.8000928 16.3070899,13.8634961 16.422561,13.8062785 L16.4289761,13.8031856 L16.4321836,13.8000928 L16.4385987,13.797 L16.4418062,13.797 L16.4482213,13.7939071 C16.5452491,13.760659 16.6607202,13.8364337 16.7769933,14.0026742 L16.7866158,14.0142724 L16.7866158,14.0173652 L16.7986441,14.0359223 C16.8114742,14.0537061 16.8235025,14.0745829 16.8395401,14.0962328 L16.8427476,14.1016453 L16.8523702,14.1140166 C17.0993502,14.437219 17.7697242,14.8995994 18.5307111,15.2313072 L18.5307111,15.2344 C18.6028805,15.2645552 18.67505,15.2978033 18.750427,15.3248657 L23.0292739,16.9772186 C23.9434204,17.3305762 24.7108223,17.3545457 24.7172374,18.4092061 L25.6666667,22 L25.6666667,22 Z" sketch:type="MSShapeGroup"></path>
        </g>
    </g>
</svg>