<?xml version="1.0" encoding="UTF-8" standalone="no"?>
<svg width="26px" height="24px" viewBox="0 0 26 24" version="1.1" xmlns="http://www.w3.org/2000/svg" xmlns:xlink="http://www.w3.org/1999/xlink" xmlns:sketch="http://www.bohemiancoding.com/sketch/ns">
    <!-- Generator: Sketch 3.3.2 (12043) - http://www.bohemiancoding.com/sketch -->
    <title>Fill 1 + Fill 2 Copy</title>
    <desc>Created with Sketch.</desc>
    <defs></defs>
    <g id="desktop-header-/-footer" stroke="none" stroke-width="1" fill="none" fill-rule="evenodd" sketch:type="MSPage">
        <g id="desktop-ad-entry-header-footere" sketch:type="MSArtboardGroup" transform="translate(-1049.000000, -196.000000)" fill="#2A343F">
            <g id="Fill-1-+-Fill-2-Copy" sketch:type="MSLayerGroup" transform="translate(1049.000000, 196.000000)">
                <path d="M12.2846521,15.9764462 C12.2846521,15.9764462 13.5266318,20.7260829 18.7414307,23.2268096 C18.7414307,23.2268096 15.7615456,16.977173 17.7474138,14.2268096" id="Fill-1" sketch:type="MSShapeGroup"></path>
                <path d="M13.2037053,0.893476275 C6.25893488,0.893476275 0.629479717,4.69885786 0.629479717,9.39308194 C0.629479717,14.087306 6.25893488,17.8934763 13.2037053,17.8934763 C20.1476923,17.8934763 25.7771474,14.087306 25.7771474,9.39308194 C25.7779308,4.69885786 20.1476923,0.893476275 13.2037053,0.893476275 L13.2037053,0.893476275 Z M13.4700586,15.7529984 C12.853529,15.7529984 12.3537249,15.2498205 12.3537249,14.6283406 C12.3537249,14.0076493 12.853529,13.5052601 13.4700586,13.5052601 C14.0865881,13.5052601 14.5863922,14.0076493 14.5863922,14.6283406 C14.5863922,15.2498205 14.0865881,15.7529984 13.4700586,15.7529984 L13.4700586,15.7529984 Z M15.201355,10.1391733 C14.7791067,10.3844528 14.4751506,10.5540191 14.3310064,10.744091 C14.2346492,10.8568722 14.1664941,11.0019894 14.1187072,11.1676122 L14.120274,11.1676122 L14.120274,12.6085308 L12.6623814,12.6085308 L12.6623814,11.1676122 L12.6647316,11.1676122 C12.6749157,10.6841513 12.7274029,10.2992754 12.9702545,9.95462218 C13.1919544,9.64230485 13.5366469,9.34024037 14.0027652,9.0492174 C14.4022951,8.80314921 14.64593,8.6367377 14.7352367,8.54682817 C14.9569367,8.33467321 15.0681783,8.06100121 15.0681783,7.72502348 C15.0681783,7.24392861 14.9044494,6.86457347 14.5769915,6.58538071 C14.2487503,6.30618794 13.8249352,6.16580288 13.3031961,6.16580288 C12.7704895,6.16580288 12.3372737,6.31644078 12.0043321,6.61771659 C11.6267371,6.96473584 11.4379396,7.462393 11.4379396,8.11068806 L9.83981988,8.11068806 C9.83981988,6.9702566 10.1954799,6.07037259 10.905233,5.41103601 C11.5491813,4.81873724 12.3482412,4.52298219 13.3039795,4.52298219 C14.236216,4.52298219 15.0297921,4.80769571 15.6847079,5.37791144 C16.3725261,5.98125173 16.7164352,6.76362241 16.7164352,7.72502348 C16.7164352,8.73137931 16.2111473,9.53504436 15.201355,10.1391733 L15.201355,10.1391733 Z" id="Fill-2" sketch:type="MSShapeGroup"></path>
            </g>
        </g>
    </g>
</svg>