<svg viewBox="0 0 24 32" xmlns="http://www.w3.org/2000/svg"><g fill="none" fill-rule="evenodd"><path d="m23.04 28.13c-.109-1.12-.228-2.242-.351-3.363-.108-.975-.849-2.15-1.627-2.548-2.167-.981-4.252-1.64-6.308-1.976-.04-.34-.084-.684-.127-1.024 2.404-.404 5.08-1.141 4.389-1.405-.437-.168-.82-.817-1.064-1.73.12-.129.218-.284.251-.474l.002-.017c.524-.301.989-.902 1.267-1.686.039.031.081.055.123.079l.554.013c.192-.09.335-.273.375-.502l.185-1.096c.06-.371-.175-.722-.528-.784-.169-.033-.331.009-.463.094-.053-.403-.166-.776-.324-1.082.19-.459.346-.933.45-1.422.391-1.508.193-3.072-.476-4.467.058-.172.047-.369-.057-.555-1.356-2.472-4.366-4.201-7.668-4.188-3.303-.011-6.311 1.716-7.668 4.188-.102.186-.113.383-.059.555-.665 1.396-.863 2.96-.473 4.467.106.49.26.962.45 1.42-.161.308-.268.681-.324 1.084-.133-.085-.295-.127-.463-.094-.355.063-.593.413-.527.784l.185 1.096c.064.37.401.615.759.551.111-.022.209-.071.293-.142.281.781.743 1.384 1.27 1.686l.003.017c.061.371.329.648.656.735-.306 1.148-.78 2-1.24 2.234-.514.258 1.555.517 3.913.645-.041.338-.083.682-.121 1.019-2.058.34-4.144.994-6.31 1.976-.776.398-1.518 1.573-1.626 2.548-.125 1.121-.242 2.243-.353 3.363-.096.981.446 2.032 1.224 2.301 3.306 1.031 6.799 1.546 10.291 1.546 3.495 0 6.986-.515 10.291-1.546.779-.269 1.323-1.32 1.224-2.301m-9.502-4.412c-.448.459-1.194.722-2.01.722-.819 0-1.565-.262-1.99-.701-.43-.398-.415-.977-.365-1.535.005-.057.009-.11.013-.155l.209-1.89c.124.08.247.153.372.201.596.208 1.178.311 1.759.311.583 0 1.164-.103 1.761-.311.122-.048.246-.121.37-.201l.208 1.89c.002.043.007.097.014.155.053.558.067 1.138-.341 1.515m-8.936-14.676c-.004-.025-.013-.05-.017-.077-.288-1.301-.094-2.62.484-3.791.175-.072.327-.195.426-.36 1.145-1.977 3.541-3.316 6.15-3.31 2.61-.007 5.01 1.332 6.151 3.31.1.164.252.29.427.362.575 1.172.771 2.49.483 3.788-.005.027-.009.052-.017.077-.08-.046-.17-.081-.264-.1-.01-.002-.019 0-.029-.001.093-2.515-1.036-4.288-1.692-4.862-1.174-1.125-3.043-1.685-4.915-1.685-1.785 0-3.569.51-4.752 1.529-.03.016-.067.03-.098.049-.534.353-.919.881-1.179 1.521-.524.918-.89 2.109-.888 3.449-.002.001-.004 0-.007 0-.094.019-.181.054-.262.1m3.233 8.663c-.161-.59-.3-1.191-.424-1.801-.136-.05-.243-.161-.278-.307l-.525-2.237c-.052-.215.082-.434.3-.501-.064-.496-.126-.996-.178-1.494-.007-.107-.022-.235-.033-.384 1.428-.366 2.646-1.255 3.44-2.439 1.361 1.445 3.609 2.44 6.199 2.601-.008.081-.015.155-.016.222-.055.498-.113.998-.176 1.494.214.067.349.286.297.501l-.522 2.237c-.035.147-.145.258-.28.307-.007.036-.017.07-.025.108-.011.004-.017.012-.028.016-.367.135-1.518.472-2.371.722-.241-.27-.773-.475-1.37-.504-.773-.04-1.318.492-1.216 1.19.103.695.773 1.03 1.499.75.545-.211.986-.56 1.152-.883.71-.206 1.648-.48 2.184-.653-.081.353-.156.709-.247 1.056-.079.309-.348.705-.701 1.057-.055.058-.116.111-.172.164-.035.029-.067.059-.099.088-.055.045-.113.089-.168.13-.041.028-.081.063-.122.089-.073.049-.141.089-.21.132-.019.01-.04.022-.057.035-.116.061-.232.116-.348.154-.617.178-1.217.267-1.814.267-.599 0-1.198-.089-1.815-.267-.174-.06-.345-.149-.514-.257-.075-.043-.147-.095-.217-.148-.012-.01-.024-.019-.038-.028-.146-.115-.289-.236-.417-.366-.001-.002-.003-.002-.003-.002-.348-.35-.613-.741-.687-1.047" fill="#2a343f"/></g></svg>