<svg viewBox="0 0 25 22" xmlns="http://www.w3.org/2000/svg"><g fill="none" fill-rule="evenodd"><path d="m25 22h-25l.69-3.594c.006-1.054.754-1.079 1.644-1.432l4.168-1.652c.064-.025.125-.052.189-.079l.003-.015.025-.084c.79-.353 1.47-.843 1.678-1.181.137-.23.29-.317.403-.217.024.002.042.015.055.03.116-.351.235-.707.351-1.058.04-.135.122-.069.162.036l-.091-.36-.052-.646c-.08-.084-.144-.157-.19-.205-.271-.309-.293-1.12-.426-1.317-.137-.199-.409-.242-.683-1.163-.272-.922-.601-2.238-.251-2.262.03 0 .064.006.104.021-.024-.13-.052-.13-.08-.311-.055-.344-.256-.909-.274-1.244-.037-.749.152-2.855.58-3.555.427-.704 1.098-1.299 2.053-1.51.836-.184 3.313-.344 4.101 0 .262.114.586.284.909.489.537.338 1.08.773 1.349 1.211.426.701.552 2.616.512 3.365-.027.564-.159 1.331-.219 1.673.101-.09.198-.142.284-.139.351.021.018 1.338-.253 2.262-.275.918-.547.963-.68 1.16-.137.199-.156 1.011-.427 1.32-.043.045-.107.111-.184.193l-.045.791c-.027.435.091.03.134.187.027.088.213.659.323.964.048.121.024.184.137.127l.006-.003.003-.003.006-.003h.003l.006-.003c.095-.033.207.043.32.209l.009.012v.003l.012.019c.012.018.024.039.04.06l.003.005.009.012c.241.323.894.786 1.635 1.117v.003c.07.03.141.063.214.09l4.168 1.652c.89.353 1.638.377 1.644 1.432l.925 3.591" fill="#858b92"/></g></svg>