<svg viewBox="0 0 27 27" xmlns="http://www.w3.org/2000/svg"><g fill="none" fill-rule="evenodd"><path d="m13.759 26.35c-7.237 0-13.12-5.888-13.12-13.12 0-7.238 5.888-13.12 13.13-13.12 7.237 0 13.13 5.888 13.13 13.13 0 7.237-5.888 13.13-13.12 13.13m0-22.5c-5.17 0-9.375 4.205-9.375 9.375 0 5.169 4.205 9.375 9.375 9.375 5.169 0 9.375-4.206 9.375-9.375 0-5.17-4.206-9.375-9.375-9.375" fill="#858b92"/><g fill="#808080"><path d="m7.01 11.875h13.5v2.7h-13.5v-2.7"/><path d="m12.409 6.475h2.7v13.5h-2.7v-13.5"/></g></g></svg>