<?xml version="1.0" encoding="UTF-8" standalone="no"?>
<svg width="15px" height="22px" viewBox="0 0 15 22" version="1.1" xmlns="http://www.w3.org/2000/svg" xmlns:xlink="http://www.w3.org/1999/xlink" xmlns:sketch="http://www.bohemiancoding.com/sketch/ns">
    <!-- Generator: Sketch 3.3.1 (12005) - http://www.bohemiancoding.com/sketch -->
    <title>Imported Layers</title>
    <desc>Created with Sketch.</desc>
    <defs></defs>
    <g id="Page-1" stroke="none" stroke-width="1" fill="none" fill-rule="evenodd" sketch:type="MSPage">
        <path d="M14.6521023,6.81288235 C14.6521023,3.05055882 11.3723833,0 7.32622512,0 C3.28006698,0 0,3.05023529 0,6.81288235 C0,8.24352941 0.47524093,9.57064706 1.28516837,10.6664412 L1.25907535,10.6667647 C1.25907535,10.6667647 7.0211107,18.5282059 7.31370047,21.7560588 L7.32622512,21.7783824 C7.61881488,18.5502059 13.3808502,10.6890882 13.3808502,10.6890882 L13.3502344,10.6884412 C14.1699033,9.58811765 14.6521023,8.25291176 14.6521023,6.81288235 L14.6521023,6.81288235 Z M7.13244093,10.3911176 C5.42908837,10.3911176 4.04754977,9.10670588 4.04754977,7.52238235 C4.04754977,5.93805882 5.42874047,4.65397059 7.13244093,4.65397059 C8.8361414,4.65397059 10.2173321,5.93805882 10.2173321,7.52238235 C10.2173321,9.10670588 8.8361414,10.3911176 7.13244093,10.3911176 L7.13244093,10.3911176 Z" id="Imported-Layers" fill="#FF6600" sketch:type="MSShapeGroup"></path>
    </g>
</svg>