<?xml version="1.0" encoding="utf-8"?>
<!-- Generator: Adobe Illustrator 16.0.0, SVG Export Plug-In . SVG Version: 6.00 Build 0)  -->
<!DOCTYPE svg PUBLIC "-//W3C//DTD SVG 1.1//EN" "http://www.w3.org/Graphics/SVG/1.1/DTD/svg11.dtd">
<svg version="1.1" id="Layer_1" xmlns:sketch="http://www.bohemiancoding.com/sketch/ns"
	 xmlns="http://www.w3.org/2000/svg" xmlns:xlink="http://www.w3.org/1999/xlink" x="0px" y="0px" width="15px" height="22px"
	 viewBox="0 0 15 22" enable-background="new 0 0 15 22" xml:space="preserve">
<title>Imported Layers</title>
<desc>Created with Sketch.</desc>
<g id="Page-1" sketch:type="MSPage">
	<path id="Imported-Layers" sketch:type="MSShapeGroup" fill="#E34B39" d="M14.652,6.813C14.652,3.051,11.373,0,7.326,0
		C3.28,0,0,3.05,0,6.813c0,1.431,0.475,2.758,1.285,3.854l-0.026,0c0,0,5.762,7.861,6.054,11.089l0.013,0.022
		c0.292-3.228,6.055-11.089,6.055-11.089l-0.031,0C14.17,9.588,14.652,8.253,14.652,6.813L14.652,6.813z M7.132,10.391
		c-1.703,0-3.085-1.285-3.085-2.869c0-1.584,1.381-2.869,3.085-2.869s3.084,1.284,3.084,2.869
		C10.217,9.106,8.836,10.391,7.132,10.391L7.132,10.391z"/>
</g>
</svg>
