<?xml version="1.0" encoding="utf-8"?>
<!-- Generator: Adobe Illustrator 16.0.0, SVG Export Plug-In . SVG Version: 6.00 Build 0)  -->
<!DOCTYPE svg PUBLIC "-//W3C//DTD SVG 1.1//EN" "http://www.w3.org/Graphics/SVG/1.1/DTD/svg11.dtd">
<svg version="1.1" id="Layer_1" xmlns="http://www.w3.org/2000/svg" xmlns:xlink="http://www.w3.org/1999/xlink" x="0px" y="0px"
	 width="363.204px" height="132.989px" viewBox="0 0 363.204 132.989" enable-background="new 0 0 363.204 132.989"
	 xml:space="preserve">
<g>
	<g>
		<g>
			<path fill="#444445" d="M100.223,35.773V3.406h8.928l7.065,14.406c0.446,0.929,0.816,1.792,1.108,2.586s0.512,1.548,0.662,2.263
				l0.224-0.121c-0.261-0.795-0.447-1.694-0.559-2.698c-0.111-1.003-0.167-2.394-0.167-4.172V3.406h8.406v32.367h-8.872
				l-7.213-15.052c-0.373-0.781-0.703-1.579-0.988-2.395c-0.285-0.814-0.528-1.646-0.727-2.495l-0.224,0.121
				c0.261,0.876,0.454,1.87,0.578,2.98c0.124,1.111,0.187,2.421,0.187,3.93v12.91L100.223,35.773L100.223,35.773z"/>
			<path fill="#444445" d="M150.235,12.316v23.457h-7.699v-3.636c-0.932,1.414-1.987,2.471-3.167,3.171
				c-1.181,0.7-2.505,1.051-3.971,1.051c-2.274,0-4.059-0.812-5.359-2.435c-1.298-1.624-1.947-3.863-1.947-6.718v-14.89h8.145
				v13.436c0,1.037,0.246,1.842,0.735,2.415c0.493,0.573,1.185,0.858,2.079,0.858c0.895,0,1.627-0.306,2.2-0.919
				c0.571-0.613,0.857-1.397,0.857-2.354V12.316H150.235z"/>
			<path fill="#444445" d="M174.056,28.541c-0.521,2.411-1.787,4.33-3.802,5.758c-2.012,1.428-4.473,2.142-7.38,2.142
				c-3.604,0-6.465-1.132-8.584-3.395c-2.119-2.263-3.177-5.313-3.177-9.152c0-3.61,1.079-6.553,3.234-8.83
				c2.156-2.276,4.936-3.415,8.341-3.415c3.654,0,6.52,1.239,8.603,3.717c2.079,2.479,3.123,5.913,3.123,10.304v0.546H158.94
				c0.187,1.293,0.646,2.3,1.38,3.021c0.733,0.721,1.659,1.082,2.778,1.082c0.72,0,1.338-0.156,1.853-0.465
				c0.517-0.31,0.892-0.748,1.128-1.313H174.056z M159.127,21.287h7.456c-0.187-1.131-0.607-2-1.267-2.606
				c-0.658-0.606-1.509-0.91-2.553-0.91c-0.908,0-1.679,0.307-2.312,0.92C159.817,19.303,159.375,20.169,159.127,21.287z"/>
			<path fill="#444445" d="M174.022,27.792h7.604c0.077,1.064,0.369,1.853,0.878,2.364c0.507,0.512,1.263,0.768,2.257,0.768
				c0.78,0,1.413-0.172,1.897-0.515c0.485-0.343,0.728-0.791,0.728-1.344c0-0.808-1.187-1.468-3.56-1.98
				c-0.473-0.108-0.838-0.188-1.1-0.242c-2.994-0.713-5.131-1.647-6.402-2.798c-1.275-1.151-1.91-2.704-1.91-4.657
				c0-2.465,0.873-4.371,2.619-5.719c1.744-1.346,4.215-2.02,7.408-2.02c3.342,0,5.887,0.65,7.633,1.95
				c1.746,1.3,2.639,3.203,2.676,5.708h-7.252c-0.1-0.781-0.379-1.357-0.84-1.728c-0.459-0.371-1.131-0.556-2.013-0.556
				c-0.706,0-1.272,0.128-1.696,0.383c-0.422,0.257-0.631,0.586-0.631,0.991c0,0.336,0.186,0.626,0.557,0.869
				c0.375,0.243,0.965,0.452,1.771,0.626c0.559,0.121,1.337,0.283,2.33,0.485c2.497,0.512,4.059,0.956,4.678,1.333
				c1.356,0.808,2.317,1.728,2.893,2.758c0.57,1.031,0.856,2.361,0.856,3.99c0,2.546-0.905,4.513-2.714,5.9
				c-1.809,1.388-4.391,2.081-7.745,2.081c-3.627,0-6.35-0.718-8.162-2.152C174.965,32.854,174.047,30.689,174.022,27.792z"/>
			<path fill="#444445" d="M194.864,18.054v-5.738h2.664V5.245h8.184v7.072h3.316v5.738h-3.316v9.819
				c0,0.606,0.142,1.041,0.418,1.304c0.281,0.262,0.763,0.395,1.445,0.395c0.198,0,0.413-0.01,0.646-0.03
				c0.226-0.021,0.497-0.051,0.809-0.091v6.324c-1.229,0.242-2.266,0.421-3.112,0.536c-0.844,0.114-1.541,0.171-2.086,0.171
				c-2.189,0-3.783-0.589-4.791-1.768c-1.006-1.179-1.511-3.047-1.511-5.606V18.054H194.864z"/>
			<path fill="#444445" d="M210.411,35.773V12.316h7.586v3.92c0.422-1.456,1.228-2.56,2.414-3.314
				c1.187-0.753,2.748-1.151,4.687-1.192v8.062c-0.271-0.054-0.545-0.094-0.818-0.122c-0.274-0.026-0.562-0.041-0.854-0.041
				c-1.529,0-2.715,0.462-3.555,1.385c-0.838,0.923-1.256,2.226-1.256,3.909v10.85H210.411z"/>
			<path fill="#444445" d="M225.344,20.5c0.109-2.963,1.047-5.18,2.813-6.648c1.766-1.468,4.375-2.202,7.826-2.202
				c1.506,0,2.84,0.115,4.01,0.344c1.166,0.229,2.16,0.573,2.982,1.03c1.504,0.809,2.553,1.812,3.148,3.01
				c0.6,1.2,0.895,2.977,0.895,5.334v12.304c0,0.323,0.078,0.61,0.234,0.859c0.153,0.25,0.381,0.448,0.68,0.596v0.647h-8.443
				l-0.262-2.606c-0.844,1.159-1.807,1.994-2.889,2.506c-1.078,0.512-2.471,0.768-4.174,0.768c-2.388,0-4.275-0.637-5.666-1.91
				c-1.394-1.272-2.086-2.994-2.086-5.162c0-2.155,0.633-3.809,1.897-4.96c1.271-1.151,3.43-2.01,6.487-2.576
				c0.423-0.081,1-0.182,1.73-0.303c2.846-0.485,4.271-1.199,4.271-2.141c0-0.62-0.228-1.092-0.674-1.415
				c-0.447-0.324-1.101-0.485-1.955-0.485c-0.984,0-1.726,0.24-2.229,0.718c-0.504,0.479-0.815,1.242-0.938,2.293L225.344,20.5
				L225.344,20.5z M239.118,25.105c-0.547,0.499-1.479,0.917-2.797,1.254c-0.111,0.027-0.201,0.047-0.26,0.06
				c-1.59,0.405-2.613,0.775-3.068,1.112c-0.455,0.337-0.68,0.781-0.68,1.333c0,0.552,0.26,1.014,0.781,1.384
				c0.523,0.37,1.193,0.555,2.016,0.555c1.305,0,2.303-0.404,3-1.212c0.695-0.808,1.043-1.973,1.043-3.495
				c0-0.27-0.002-0.472-0.008-0.606C239.139,25.355,239.129,25.227,239.118,25.105z"/>
		</g>
		<path fill="#E34B39" d="M173.202,90.606c-1.695,7.635-5.807,13.712-12.335,18.232c-6.532,4.521-14.512,6.783-23.946,6.783
			c-11.692,0-20.972-3.586-27.845-10.75c-6.875-7.164-10.31-16.826-10.31-28.981c0-11.431,3.497-20.75,10.492-27.958
			c6.992-7.208,16.013-10.813,27.058-10.813c11.852,0,21.153,3.924,27.906,11.771c6.75,7.848,10.126,18.726,10.126,32.629v1.728
			h-50.186c0.605,4.096,2.097,7.283,4.475,9.565c2.378,2.28,5.381,3.422,9.01,3.422c2.336,0,4.342-0.489,6.016-1.472
			c1.672-0.98,2.892-2.366,3.658-4.157L173.202,90.606L173.202,90.606z M124.768,67.637h24.186
			c-0.604-3.582-1.976-6.334-4.112-8.253c-2.137-1.919-4.897-2.88-8.284-2.88c-2.942,0-5.442,0.971-7.498,2.912
			C127.003,61.357,125.573,64.097,124.768,67.637z"/>
		<path fill="#E34B39" d="M175.412,115.513v-76.41h24.375v11.644c2.953-4.521,6.295-7.88,10.033-10.076
			c3.738-2.196,7.93-3.296,12.568-3.296c7.205,0,12.859,2.57,16.973,7.709c4.109,5.141,6.166,12.23,6.166,21.272v49.156h-25.791
			V70.901c0-3.285-0.777-5.823-2.33-7.614c-1.557-1.792-3.75-2.687-6.584-2.687c-2.83,0-5.154,0.959-6.962,2.878
			c-1.812,1.919-2.715,4.394-2.715,7.423v44.612H175.412z"/>
		<path fill="#E34B39" d="M245.352,57.4V39.23h8.439V16.838h25.91V39.23h10.504V57.4h-10.504v31.093
			c0,1.922,0.442,3.297,1.329,4.127c0.884,0.832,2.408,1.248,4.572,1.248c0.631,0,1.308-0.031,2.037-0.095
			c0.728-0.065,1.584-0.161,2.563-0.289v20.024c-3.893,0.768-7.18,1.334-9.854,1.697c-2.677,0.36-4.878,0.541-6.609,0.541
			c-6.928,0-11.981-1.865-15.168-5.599c-3.188-3.729-4.78-9.647-4.78-17.752V57.4H245.352z"/>
		<path fill="#E34B39" d="M362.055,90.606c-1.693,7.635-5.805,13.712-12.334,18.232c-6.531,4.521-14.514,6.783-23.945,6.783
			c-11.693,0-20.973-3.586-27.846-10.75s-10.309-16.826-10.309-28.981c0-11.431,3.496-20.75,10.489-27.958
			c6.992-7.208,16.015-10.813,27.062-10.813c11.852,0,21.149,3.924,27.904,11.771c6.75,7.848,10.127,18.726,10.127,32.629v1.728
			h-50.188c0.604,4.096,2.098,7.283,4.476,9.565c2.379,2.28,5.381,3.422,9.01,3.422c2.338,0,4.344-0.489,6.016-1.472
			c1.674-0.98,2.895-2.366,3.66-4.157L362.055,90.606L362.055,90.606z M313.622,67.637h24.188c-0.604-3.582-1.978-6.334-4.113-8.253
			s-4.896-2.88-8.284-2.88c-2.941,0-5.439,0.971-7.496,2.912C315.858,61.357,314.426,64.097,313.622,67.637z"/>
		<path fill="#E34B39" d="M76.204,101.051c-3.434,4.852-7.479,8.5-12.166,10.902c-4.672,2.409-9.98,3.616-15.909,3.616
			c-7.15,0-13.682-1.444-19.584-4.329c-5.909-2.908-11-7.142-15.278-12.746c-4.404-5.641-7.717-11.996-9.939-19.06
			C1.105,72.364,0,64.721,0,56.508c0-9.225,1.373-17.48,4.13-24.783c2.748-7.298,6.879-13.66,12.379-19.068
			c4.354-4.309,9.292-7.503,14.792-9.566C36.807,1.024,43.054,0,50.042,0c12.909,0,23.394,3.6,31.464,10.801
			c8.061,7.2,12.747,17.167,14.06,29.867H65.274c-0.418-4.721-1.909-8.413-4.479-11.071c-2.561-2.664-5.935-4-10.126-4
			c-6.605,0-11.565,2.658-14.888,7.952c-3.323,5.306-4.989,13.27-4.989,23.919c0,10.107,1.792,17.939,5.373,23.51
			c3.57,5.576,8.601,8.375,15.08,8.375c4.692,0,8.693-1.375,11.97-4.108c3.278-2.724,5.085-6.16,5.429-10.297H56.578V52.101h41.721
			v80.888H76.214L76.204,101.051z"/>
	</g>
</g>
</svg>
