<?xml version="1.0" encoding="UTF-8" standalone="no"?>
<svg width="29px" height="29px" viewBox="0 0 29 29" version="1.1" xmlns="http://www.w3.org/2000/svg" xmlns:xlink="http://www.w3.org/1999/xlink" xmlns:sketch="http://www.bohemiancoding.com/sketch/ns">
    <!-- Generator: Sketch 3.3.1 (12005) - http://www.bohemiancoding.com/sketch -->
    <title>Fill 1 + Oval 4</title>
    <desc>Created with Sketch.</desc>
    <defs></defs>
    <g id="Page-1" stroke="none" stroke-width="1" fill="none" fill-rule="evenodd" sketch:type="MSPage">
        <g id="Fill-1-+-Oval-4" sketch:type="MSLayerGroup" transform="translate(2.000000, 2.000000)">
            <path d="M17.668,11 L14.668,11 L14.668,8 C14.668,7.44805 14.21605,7 13.668,7 L12,7 C11.44785,7 11,7.45195 11,8 L11,11 L8,11 C7.44785,11 7,11.45195 7,12 L7,13.668 C7,14.21605 7.44785,14.668 8,14.668 L11,14.668 L11,17.668 C11,18.22015 11.44785,18.668 12,18.668 L13.668,18.668 C14.21995,18.668 14.668,18.21605 14.668,17.668 L14.668,14.668 L17.668,14.668 C18.21605,14.668 18.668,14.21605 18.668,13.668 L18.668,12 C18.668,11.45195 18.21605,11 17.668,11 L17.668,11 Z" id="Fill-1" fill="#FFFFFF" sketch:type="MSShapeGroup"></path>
            <circle id="Oval-4" stroke="#FFFFFF" stroke-width="3" sketch:type="MSShapeGroup" cx="12.5" cy="12.5" r="12.5"></circle>
        </g>
    </g>
</svg>