<?xml version="1.0" encoding="UTF-8" standalone="no"?>
<svg width="22px" height="22px" viewBox="0 0 22 22" version="1.1" xmlns="http://www.w3.org/2000/svg" xmlns:xlink="http://www.w3.org/1999/xlink" xmlns:sketch="http://www.bohemiancoding.com/sketch/ns">
    <!-- Generator: Sketch 3.3.2 (12043) - http://www.bohemiancoding.com/sketch -->
    <title>Imported Layers Copy</title>
    <desc>Created with Sketch.</desc>
    <defs></defs>
    <g id="Page-1" stroke="none" stroke-width="1" fill="none" fill-rule="evenodd" sketch:type="MSPage">
        <g id="Imported-Layers-Copy" sketch:type="MSLayerGroup" fill="#E2E2E2">
            <path d="M21.9912035,19.4333304 L15.5770996,13.0166696 C17.6845958,9.7166696 17.3180728,5.4083304 14.3859152,2.475 C11.0872347,-0.825 5.77269092,-0.825 2.4740104,2.475 C-0.824670132,5.775 -0.824670132,11.0916696 2.4740104,14.3916696 C5.31454378,17.2333304 9.71278449,17.6 12.9198321,15.5833304 L19.333936,22 L21.9912035,19.4333304 L21.9912035,19.4333304 Z M4.94802079,12.0083304 C3.02379048,10.0833304 3.02379048,6.875 4.94802079,4.95 C6.8722511,3.025 10.0792987,3.025 12.003529,4.95 C13.9277593,6.875 13.9277593,10.0833304 12.003529,12.0083304 C9.98767453,13.9333304 6.8722511,13.9333304 4.94802079,12.0083304 L4.94802079,12.0083304 Z" sketch:type="MSShapeGroup"></path>
        </g>
    </g>
</svg>